IKResults
version=1
nRows=11
nColumns=40
inDegrees=yes

Units are S.I. units (second, meters, Newtons, ...)
Angles are in degrees.

endheader
time	pelvis_tilt	pelvis_list	pelvis_rotation	pelvis_tx	pelvis_ty	pelvis_tz	hip_flexion_r	hip_adduction_r	hip_rotation_r	knee_angle_r	knee_angle_r_beta	ankle_angle_r	subtalar_angle_r	mtp_angle_r	hip_flexion_l	hip_adduction_l	hip_rotation_l	knee_angle_l	knee_angle_l_beta	ankle_angle_l	subtalar_angle_l	mtp_angle_l	lumbar_extension	lumbar_bending	lumbar_rotation	arm_flex_r	arm_add_r	arm_rot_r	elbow_flex_r	pro_sup_r	wrist_flex_r	wrist_dev_r	arm_flex_l	arm_add_l	arm_rot_l	elbow_flex_l	pro_sup_l	wrist_flex_l	wrist_dev_l
      0.57000000	     18.46828210	     -0.88266828	      1.53928190	      0.01034980	      0.94606972	      0.96135551	      3.98583588	     -1.01198536	    -11.11642240	    -41.90507284	     -0.73138149	      4.74158587	    -13.87958466	     10.58686450	    -21.34053547	     -0.87085154	      7.88325506	    -17.49990575	     -0.30543097	     13.89024345	      6.74644901	     -4.80092623	    -24.05198192	      0.15551350	     -4.39350492	    -10.21372829	    -10.68267565	      3.72488815	     26.82435275	     89.95437384	      0.00000000	      0.00000000	      6.78454455	     11.91631760	      3.69140266	     35.74557325	     89.95437384	      0.00000000	      0.00000000
      0.58000000	     18.87534950	     -1.18015705	      2.39883745	      0.02384645	      0.94525256	      0.96065164	      3.72445267	     -0.74227587	    -12.69172567	    -38.43585556	     -0.67083223	      4.78153561	    -12.95103031	     10.53310645	    -22.90927621	     -0.26623289	      7.18292071	    -16.99742485	     -0.29666103	     14.52109030	      6.92298663	     -5.14587717	    -24.52979483	      0.77966764	     -5.22078931	    -10.57981039	    -10.36924425	      3.17057191	     25.94540310	     89.95437384	      0.00000000	      0.00000000	      7.12314337	     12.29985009	      3.73838264	     38.18740146	     89.95437384	      0.00000000	      0.00000000
      0.59000000	     18.68259911	     -1.12828239	      2.65871781	      0.03706615	      0.94323368	      0.96028191	      4.41197216	     -0.96352544	    -13.87209168	    -35.46517126	     -0.61898401	      4.75944915	    -11.94356040	     10.23738697	    -23.70473953	     -0.25207581	      7.05758094	    -16.79640986	     -0.29315265	     14.91954448	      7.03998714	     -5.39076975	    -24.37996416	      0.85737024	     -5.45476011	    -11.18196594	    -10.24241265	      2.84923082	     25.39066546	     89.95437384	      0.00000000	      0.00000000	      7.77367724	     12.41673898	      3.85728307	     40.02105885	     89.95437384	      0.00000000	      0.00000000
      0.60000000	     18.41682338	     -1.08011667	      2.82476220	      0.05032709	      0.94084016	      0.96023389	      5.15080885	     -1.21899610	    -15.29489875	    -32.50944487	     -0.56739685	      4.61570751	    -10.60870977	      9.85636060	    -24.36654666	     -0.22663564	      7.12344717	    -16.70168242	     -0.29149935	     15.42878740	      7.09882753	     -5.59216413	    -24.15969576	      0.87464889	     -5.62510736	    -11.75202357	    -10.10860286	      2.58032382	     24.84913148	     89.95437384	      0.00000000	      0.00000000	      8.35168799	     12.59787246	      3.96526512	     41.91285441	     89.95437384	      0.00000000	      0.00000000
      0.61000000	     18.14137353	     -1.04245790	      3.00658102	      0.06337650	      0.93829383	      0.96024140	      5.82508432	     -1.46550712	    -16.94806169	    -29.45595474	     -0.51410339	      4.21750138	     -8.90251123	      9.22363718	    -24.95840756	     -0.16351988	      7.15494187	    -16.71231410	     -0.29168491	     15.85364854	      7.07373521	     -5.82753444	    -23.96643349	      0.90438684	     -5.80416699	    -12.29673270	     -9.98420356	      2.27431632	     24.37554714	     89.95437384	      0.00000000	      0.00000000	      8.96396413	     12.72716936	      4.20299303	     43.74735171	     89.95437384	      0.00000000	      0.00000000
      0.62000000	     17.85371700	     -1.02949698	      3.25793168	      0.07674196	      0.93561100	      0.96016961	      6.43245827	     -1.73252971	    -19.06533639	    -26.45202624	     -0.46167495	      3.58135612	     -6.83825111	      8.40453441	    -25.53222822	     -0.03476523	      7.07638379	    -16.77618012	     -0.29279958	     16.30492290	      7.03975481	     -6.06985210	    -23.71151009	      0.98836379	     -6.03974487	    -12.85939802	     -9.91627509	      2.15316446	     23.93153851	     89.95437384	      0.00000000	      0.00000000	      9.50944599	     12.82998304	      4.46379009	     45.48501120	     89.95437384	      0.00000000	      0.00000000
      0.63000000	     17.60861603	     -0.83151473	      3.44297779	      0.09020131	      0.93288004	      0.96012622	      7.01124567	     -2.35357512	    -21.86123615	    -23.65667435	     -0.41288686	      1.88334112	     -4.05959997	     -1.90795786	    -26.21927166	     -0.15399365	      6.68960851	    -16.71643003	     -0.29175674	     16.57787627	      7.61266819	     -8.68475772	    -23.51250885	      0.84922907	     -6.25624377	    -13.39614471	     -9.84817435	      2.07071213	     23.47706777	     89.95437384	      0.00000000	      0.00000000	     10.05423659	     12.96124878	      4.64659508	     47.20442863	     89.95437384	      0.00000000	      0.00000000
      0.64000000	     17.27361912	     -0.94619025	      3.60186747	      0.10358152	      0.92993269	      0.96059882	      7.62763234	     -2.30580294	    -24.01600826	    -20.91157738	     -0.36497588	      1.20983115	     -1.61962649	     -2.27831423	    -26.62071562	      0.14270691	      6.66160990	    -17.05952339	     -0.29774485	     16.97973965	      7.34344293	     -8.71136266	    -23.22012261	      1.00462143	     -6.36484292	    -13.84253032	     -9.77418928	      1.94711026	     22.96849718	     89.95437384	      0.00000000	      0.00000000	     10.55224565	     12.97352995	      5.03821069	     48.79638874	     89.95437384	      0.00000000	      0.00000000
      0.65000000	     16.85687331	     -1.05039113	      3.64694321	      0.11708731	      0.92685017	      0.96133175	      8.32126592	     -2.14790122	    -25.72940305	    -18.32509316	     -0.31983321	      0.89804599	      0.73511688	     -2.70040645	    -26.93310555	      0.38557200	      6.62807481	    -17.41724895	     -0.30398834	     17.50609891	      7.17843461	     -8.78364650	    -22.83603937	      1.08639874	     -6.38751764	    -14.15755782	     -9.68371699	      1.83794251	     22.26237812	     89.95437384	      0.00000000	      0.00000000	     10.98023469	     13.07190712	      5.27358806	     50.36272898	     89.95437384	      0.00000000	      0.00000000
      0.66000000	     16.61115345	     -1.13718027	      3.95707604	      0.13110138	      0.92382294	      0.96184263	      9.05416240	     -2.53236639	    -29.72098577	    -16.86308687	     -0.29431639	      0.61897996	      5.57916226	    -10.93060204	    -27.33007627	      0.83552331	      6.68997271	    -18.00670792	     -0.31427634	     17.59130321	      6.39250042	     -9.69487046	    -22.55757739	      1.23979142	     -6.61457183	    -14.63700227	     -9.60734669	      1.64450939	     21.84367583	     89.95437384	      0.00000000	      0.00000000	     11.44160728	     13.11544959	      5.52072502	     51.70158734	     89.95437384	      0.00000000	      0.00000000
      0.67000000	     16.15792388	     -1.07227100	      3.62234621	      0.14455981	      0.92064627	      0.96308485	     10.25109320	     -2.49832529	    -30.57477835	    -15.80006338	     -0.27576313	      1.12888424	      5.74373520	    -10.91179315	    -27.64819627	      0.71007100	      6.63315460	    -18.32506852	     -0.31983278	     17.66210244	      6.33628309	     -9.66086909	    -22.17482935	      1.03115462	     -6.18202003	    -15.06226359	     -9.60779245	      1.69939596	     21.41807643	     89.95437384	      0.00000000	      0.00000000	     12.08073628	     13.09011282	      5.57089422	     52.77447679	     89.95437384	      0.00000000	      0.00000000
